<svg version="1.1"
      xmlns="http://www.w3.org/2000/svg"
      xmlns:xlink="http://www.w3.org/1999/xlink"  id="snapshot-90131" width="100" height="100" viewBox="0 0 100 100"><desc>This image was made on Patterninja.com</desc><defs>
<!-- image 25603 -->
<g id="transformed-25603" data-image="25603" transform="translate(-20, -20) rotate(25, 20, 20)"><g transform="translate(0, 40) scale(1, -1)"><svg version="1.1" width="40px" height="40px" viewBox="0 0 40 40"><g id="original-25603"><svg xmlns="http://www.w3.org/2000/svg" viewBox="0 0 62 61" xmlns:xlink="http://www.w3.org/1999/xlink" version="1.1" preserveAspectRatio="xMidYMid meet">
  <path fill-rule="evenodd" d="M31.081 25.234l13.03-13.03c-.72-2.954.28-6.466 2.882-9.068C49.401.73 52.588-.307 55.393.122l-5.388 6.712c-.352.438-.337 1.088.03 1.455l3.313 3.313c.375.375 1.019.381 1.455.03l6.652-5.339c.38 2.773-.662 5.901-3.033 8.272-2.4 2.401-5.578 3.438-8.376 3.018L36.738 30.891l12.616 12.615c2.955-.72 6.467.281 9.068 2.883 2.408 2.407 3.444 5.595 3.014 8.4L54.725 49.4c-.439-.352-1.089-.336-1.456.031l-3.312 3.312c-.375.375-.382 1.02-.031 1.456l5.34 6.651c-2.774.38-5.902-.661-8.273-3.033-2.4-2.4-3.438-5.577-3.018-8.376L31.081 36.548 18.188 49.44c.42 2.799-.617 5.976-3.018 8.376-2.371 2.372-5.5 3.413-8.272 3.033l5.34-6.651c.35-.437.343-1.08-.032-1.456L8.894 49.43c-.367-.367-1.017-.383-1.456-.03L.726 54.787c-.429-2.804.607-5.992 3.015-8.4 2.601-2.6 6.113-3.601 9.068-2.882L25.425 30.89 12.117 17.582c-2.798.42-5.975-.617-8.376-3.018C1.37 12.195.329 9.066.708 6.293l6.652 5.34c.436.35 1.08.344 1.455-.031l3.312-3.313c.368-.367.383-1.017.031-1.455L6.77.122c2.805-.43 5.992.607 8.4 3.014 2.601 2.602 3.602 6.114 2.882 9.069l13.03 13.029z" fill="rgba(253, 247, 247, 1)" stroke="none"/>
</svg>
</g></svg></g></g>
<!-- /image 25603 -->
</defs><rect x="0" y="0" width="100" height="100" fill="rgba(255, 255, 255, 0)"></rect><use xlink:href="#transformed-25603" transform="translate(-100, -100)"></use><use xlink:href="#transformed-25603" transform="translate(0, -100)"></use><use xlink:href="#transformed-25603" transform="translate(100, -100)"></use><use xlink:href="#transformed-25603" transform="translate(-100, 0)"></use><use xlink:href="#transformed-25603" transform="translate(0, 0)"></use><use xlink:href="#transformed-25603" transform="translate(100, 0)"></use><use xlink:href="#transformed-25603" transform="translate(-100, 100)"></use><use xlink:href="#transformed-25603" transform="translate(0, 100)"></use><use xlink:href="#transformed-25603" transform="translate(100, 100)"></use></svg>